G75*
%MOIN*%
%OFA0B0*%
%FSLAX24Y24*%
%IPPOS*%
%LPD*%
%AMOC8*
5,1,8,0,0,1.08239X$1,22.5*
%
%ADD10C,0.0000*%
%ADD11C,0.0100*%
%ADD12C,0.0413*%
D10*
X000100Y000139D02*
X000100Y006635D01*
X006600Y006635D01*
X006600Y000139D01*
X000100Y000139D01*
D11*
X000850Y000889D02*
X003856Y000889D01*
X003956Y000989D01*
X003956Y001452D01*
X003956Y002239D02*
X003070Y001353D01*
X002381Y001353D01*
X001850Y001889D01*
X000850Y001889D01*
X000850Y002889D02*
X001850Y002889D01*
X002303Y002436D01*
X003070Y002436D01*
X003661Y003026D01*
X003956Y003026D01*
X003759Y002633D02*
X002972Y001845D01*
X002850Y001889D01*
X002972Y002830D02*
X002850Y002889D01*
X002972Y002830D02*
X003563Y003420D01*
X004350Y003420D01*
X004744Y003026D01*
X005712Y003026D01*
X005850Y002889D01*
X005500Y002239D02*
X004744Y002239D01*
X004350Y002633D01*
X003759Y002633D01*
X003070Y003420D02*
X002319Y003420D01*
X001850Y003889D01*
X000850Y003889D01*
X000850Y004889D02*
X001850Y004889D01*
X002334Y004404D01*
X003070Y004404D01*
X003267Y004601D01*
X003956Y004601D01*
X004350Y004208D02*
X003366Y004208D01*
X003047Y003889D01*
X002850Y003889D01*
X003070Y003420D02*
X003464Y003814D01*
X003956Y003814D01*
X004350Y004208D02*
X004744Y003814D01*
X005775Y003814D01*
X005850Y003889D01*
X005563Y004601D02*
X004744Y004601D01*
X004350Y004995D01*
X002956Y004995D01*
X002850Y004889D01*
X003856Y005889D02*
X003956Y005789D01*
X003956Y005389D01*
X003856Y005889D02*
X000850Y005889D01*
X004744Y005789D02*
X004744Y005389D01*
X004744Y005789D02*
X004844Y005889D01*
X005850Y005889D01*
X005850Y004889D02*
X005563Y004601D01*
X005500Y002239D02*
X005850Y001889D01*
X005850Y000889D02*
X004844Y000889D01*
X004744Y000989D01*
X004744Y001452D01*
D12*
X004744Y001452D03*
X004744Y002239D03*
X003956Y002239D03*
X003956Y001452D03*
X002850Y001889D03*
X002850Y002889D03*
X002850Y003889D03*
X002850Y004889D03*
X001850Y004889D03*
X001850Y003889D03*
X000850Y003889D03*
X000850Y004889D03*
X000850Y005889D03*
X000850Y002889D03*
X001850Y002889D03*
X001850Y001889D03*
X000850Y001889D03*
X000850Y000889D03*
X003956Y003026D03*
X004744Y003026D03*
X004744Y003814D03*
X003956Y003814D03*
X003956Y004601D03*
X004744Y004601D03*
X004744Y005389D03*
X003956Y005389D03*
X005850Y005889D03*
X005850Y004889D03*
X005850Y003889D03*
X005850Y002889D03*
X005850Y001889D03*
X005850Y000889D03*
M02*
