%
M48
M72
T01C0.0276
%
T01
X4744Y4601
X2850Y4889
X5850Y4889
X4744Y3814
X2850Y3889
X5850Y3889
X4744Y3026
X2850Y2889
X5850Y2889
X850Y889
X3956Y1452
X850Y5889
X3956Y5389
X4744Y5389
X5850Y5889
X4744Y2239
X2850Y1889
X5850Y1889
X850Y4889
X3956Y4601
X1850Y4889
X850Y3889
X3956Y3814
X1850Y3889
X850Y2889
X3956Y3026
X1850Y2889
X850Y1889
X3956Y2239
X1850Y1889
X4744Y1452
X5850Y889
M30
